<svg xmlns="http://www.w3.org/2000/svg" viewBox="0 0 24 24" fill="none" stroke="currentColor" stroke-width="1.75" stroke-linecap="round" stroke-linejoin="round">
<path d="M3.5 9.5 12 4.5l8.5 5"/>
<path d="M3.5 9.5H20.5"/>
<path d="M3.5 9.5v1.5a2.5 2.5 0 0 0 2.5 2.5 2.5 2.5 0 0 0 2.5-2.5 2.5 2.5 0 0 0 2.5 2.5 2.5 2.5 0 0 0 2.5-2.5 2.5 2.5 0 0 0 2.5 2.5 2.5 2.5 0 0 0 2.5-2.5V9.5"/>
<path d="M5.5 13.5V21M18.5 13.5V21"/>
<path d="M5.5 21H18.5"/>
<rect x="9.5" y="15.5" width="5" height="5.5" rx="1.2"/>
</svg>
