<svg xmlns="http://www.w3.org/2000/svg" viewBox="0 0 24 24" fill="none" stroke="currentColor" stroke-width="1.75" stroke-linecap="round" stroke-linejoin="round">
<path d="M8.5 21.5c-1.5 0-3-1.5-3-4 0-2 1-5 2-8 .5-1.5 1.5-2 2.5-2s2 .5 2 2c0 1.5-1 3-1 5 0 2.5 1 4 1 5.5 0 1-1.5 1.5-3.5 1.5Z"/>
<path d="M14.5 15.5c0-1.5-.5-3-.5-4.5 0-1 .5-2 1.5-2s2 1 2.5 2.5c.75 2.5.5 5-.5 5.5-.5.25-3 0-3-1.5Z"/>
<path d="M10 6.5c0-.5.5-1 1-1"/>
<path d="M10 4c0-.5.5-1 1-1"/>
<path d="M16 8.5c.3-.4.75-.5 1-.5"/>
<path d="M15.5 6.5c.3-.4.75-.5 1-.5"/>
</svg>
