<svg xmlns="http://www.w3.org/2000/svg" viewBox="0 0 24 24" fill="none" stroke="currentColor" stroke-width="1.75" stroke-linecap="round" stroke-linejoin="round">
<circle cx="12" cy="12" r="2"/>
<path d="M12 10C12 7 10 5 8 4.5"/>
<path d="M12 10C12 7 14 5 16 4.5"/>
<path d="M10.3 13C8.5 15.5 9 18.5 10 19.5"/>
<path d="M13.7 13C15.5 15.5 15 18.5 14 19.5"/>
<path d="M10.3 13C7.5 12 5 12.5 4 13.5"/>
<path d="M13.7 13C16.5 12 19 12.5 20 13.5"/>
<circle cx="8" cy="4" r="1.5"/>
<circle cx="16" cy="4" r="1.5"/>
<circle cx="10" cy="20" r="1.5"/>
<circle cx="14" cy="20" r="1.5"/>
<circle cx="4" cy="14" r="1.5"/>
<circle cx="20" cy="14" r="1.5"/>
</svg>
