<svg xmlns="http://www.w3.org/2000/svg" viewBox="0 0 24 24" fill="none" stroke="currentColor" stroke-width="1.75" stroke-linecap="round" stroke-linejoin="round">
<path d="M6 19c0 .83 2.7 1.5 6 1.5s6-.67 6-1.5"/>
<path d="M6 19c0-.83 2.7-1.5 6-1.5s6 .67 6 1.5"/>
<path d="M6 15.5c0 .83 2.7 1.5 6 1.5s6-.67 6-1.5"/>
<path d="M6 15.5c0-.83 2.7-1.5 6-1.5s6 .67 6 1.5"/>
<path d="M6 12c0 .83 2.7 1.5 6 1.5s6-.67 6-1.5"/>
<path d="M6 12c0-.83 2.7-1.5 6-1.5s6 .67 6 1.5"/>
<path d="M12 10V3.5"/>
<path d="M9.5 6 12 3.5 14.5 6"/>
</svg>
